<svg xmlns="http://www.w3.org/2000/svg" version="1.1" xmlns:xlink="http://www.w3.org/1999/xlink" xmlns:svgjs="http://svgjs.com/svgjs" width="600" height="600"><svg width="600" height="600" viewBox="0 0 600 600" fill="none" xmlns="http://www.w3.org/2000/svg">
<g clip-path="url(#clip0_1128_1801)">
<mask id="SvgjsMask1001" style="mask-type:luminance" maskUnits="userSpaceOnUse" x="87" y="50" width="425" height="500">
<path d="M512 50H87V550H512V50Z" fill="white"></path>
</mask>
<g mask="url(#mask0_1128_1801)">
<path d="M502.303 406.041C446.935 432.564 398.61 445.637 363.63 452.604C339.719 457.37 331.318 457.262 326.115 457.262C255.704 457.262 198.607 409.839 198.607 351.329C198.607 292.819 255.688 245.396 326.115 245.396C359.01 245.396 388.996 255.758 411.616 272.752L502.303 229.248C460.215 187.37 396.913 160.725 326.115 160.725C199.415 160.738 96.6914 246.081 96.6914 351.342C96.6914 456.604 199.415 541.947 326.115 541.947C396.913 541.947 460.215 515.289 502.303 473.423V406.041Z" fill="black"></path>
<path d="M326.118 550.001C194.264 550.001 87 460.886 87 351.343C87 241.799 194.264 152.686 326.118 152.686C397.208 152.686 464.128 178.713 509.754 224.108C511.596 225.934 512.355 228.336 511.854 230.672C511.353 233.008 509.642 235.048 507.153 236.242L416.466 279.746C412.831 281.491 408.242 281.088 405.108 278.739C383.425 262.444 355.362 253.464 326.118 253.464C261.153 253.464 208.304 297.37 208.304 351.343C208.304 405.316 261.153 449.222 326.118 449.222H326.458C331.159 449.196 339.092 449.222 361.372 444.78C407.58 435.571 453.368 420.189 497.459 399.061C500.464 397.625 504.148 397.625 507.153 399.061C510.158 400.497 512 403.155 512 406.041V473.424C512 475.316 511.208 477.141 509.754 478.591C464.144 523.974 397.208 550.014 326.118 550.014V550.001ZM326.118 168.793C204.959 168.793 106.388 250.686 106.388 351.343C106.388 452.001 204.959 533.893 326.118 533.893C390.276 533.893 450.766 510.806 492.612 470.458V419.746C451.397 438.202 408.84 451.867 365.896 460.43C341.37 465.316 331.983 465.29 326.442 465.316H326.118C250.473 465.316 188.916 414.189 188.916 351.33C188.916 288.47 250.457 237.343 326.118 237.343C357.818 237.343 388.289 246.39 412.718 262.927L487.216 227.196C445.645 189.947 387.578 168.78 326.118 168.78V168.793Z" fill="white"></path>
<path d="M502.303 177.92C486.922 162.953 451.507 132.658 394.005 117.88C372.549 112.363 349.752 109.396 326.115 109.396C199.415 109.396 96.6914 194.739 96.6914 300.001C96.6914 405.263 199.415 490.605 326.115 490.605C396.913 490.605 460.215 463.947 502.303 422.081V372.444C448.437 385.007 401.551 394.363 363.63 401.276C341.27 405.357 335.002 405.934 326.115 405.934C255.704 405.934 198.607 358.511 198.607 300.001C198.607 241.491 255.688 194.068 326.115 194.068C359.01 194.068 388.996 204.43 411.616 221.424L502.303 177.92Z" fill="black"></path>
<path d="M326.118 498.657C194.264 498.657 87 409.543 87 299.999C87 190.455 194.264 101.342 326.118 101.342C350.24 101.342 374.055 104.321 396.884 110.188C440.038 121.275 479.041 142.899 509.69 172.698C511.564 174.523 512.356 176.939 511.871 179.288C511.386 181.637 509.658 183.705 507.17 184.899L416.482 228.402C412.847 230.147 408.258 229.744 405.124 227.395C383.442 211.1 355.378 202.121 326.134 202.121C261.169 202.121 208.32 246.027 208.32 299.999C208.32 353.972 261.169 397.878 326.134 397.878C333.89 397.878 339.27 397.476 361.566 393.409C407.337 385.06 453.82 375.395 499.705 364.684C502.613 363.999 505.764 364.496 508.187 366.013C510.611 367.53 512.032 369.905 512.032 372.429V422.066C512.032 423.959 511.241 425.785 509.786 427.234C464.176 472.617 397.24 498.657 326.15 498.657H326.118ZM326.118 117.449C204.959 117.449 106.388 199.342 106.388 299.999C106.388 400.657 204.959 482.549 326.118 482.549C390.276 482.549 450.766 459.462 492.612 419.114V383.02C450.395 392.684 407.758 401.449 365.718 409.127C342.986 413.275 335.893 413.972 326.118 413.972C250.473 413.972 188.916 362.845 188.916 299.986C188.916 237.127 250.457 185.999 326.118 185.999C357.818 185.999 388.289 195.046 412.718 211.583L487.103 175.905C466.713 157.959 435.127 136.872 391.148 125.57C370.177 120.174 348.301 117.449 326.118 117.449Z" fill="white"></path>
<path d="M411.616 327.234C388.996 344.227 359.01 354.59 326.115 354.59C255.704 354.59 198.607 307.167 198.607 248.657C198.607 190.147 255.688 142.724 326.115 142.724C359.01 142.724 388.996 153.087 411.616 170.08L502.303 126.576C460.215 84.7104 396.913 58.0527 326.115 58.0527C199.415 58.0527 96.6914 143.395 96.6914 248.657C96.6914 353.919 199.415 439.261 326.115 439.261C396.913 439.261 460.215 412.604 502.303 370.738L411.616 327.234Z" fill="black"></path>
<path d="M326.118 447.315C194.264 447.315 87 358.202 87 248.658C87 139.114 194.264 50 326.118 50C397.208 50 464.128 76.0271 509.754 121.423C511.597 123.248 512.356 125.651 511.855 127.986C511.354 130.322 509.641 132.363 507.153 133.557L416.466 177.06C412.83 178.805 408.242 178.403 405.108 176.053C383.425 159.758 355.362 150.779 326.118 150.779C261.153 150.779 208.304 194.685 208.304 248.658C208.304 302.63 261.153 346.537 326.118 346.537C355.378 346.537 383.425 337.557 405.108 321.262C408.226 318.913 412.814 318.51 416.466 320.255L507.153 363.758C509.625 364.953 511.354 366.98 511.855 369.329C512.356 371.664 511.58 374.081 509.754 375.892C464.144 421.275 397.208 447.315 326.118 447.315ZM326.118 66.1076C204.959 66.1076 106.388 148 106.388 248.658C106.388 349.315 204.959 431.208 326.118 431.208C387.578 431.208 445.645 410.04 487.216 372.792L412.718 337.06C388.289 353.597 357.818 362.644 326.118 362.644C250.473 362.644 188.916 311.517 188.916 248.658C188.916 185.798 250.457 134.671 326.118 134.671C357.818 134.671 388.289 143.718 412.718 160.255L487.216 124.524C445.645 87.2754 387.578 66.1076 326.118 66.1076Z" fill="white"></path>
<path d="M411.621 272.967V221.625V170.283L502.308 126.793V178.134V229.477L411.621 272.967Z" fill="black"></path>
<path d="M411.62 281.019C409.939 281.019 408.276 280.657 406.773 279.946C403.768 278.509 401.926 275.852 401.926 272.965V170.281C401.926 167.408 403.768 164.751 406.773 163.301L497.461 119.797C500.466 118.362 504.149 118.362 507.154 119.797C510.16 121.234 512.001 123.891 512.001 126.778V229.462C512.001 232.335 510.16 234.992 507.154 236.442L416.467 279.946C414.965 280.67 413.3 281.019 411.62 281.019ZM421.314 174.925V259.006L492.613 224.804V140.724L421.314 174.925Z" fill="white"></path>
<path d="M96.6941 359.395C91.3458 359.395 87 355.785 87 351.342V248.657C87 244.214 91.3458 240.604 96.6941 240.604C102.042 240.604 106.388 244.214 106.388 248.657V351.342C106.388 355.785 102.042 359.395 96.6941 359.395Z" fill="white"></path>
</g>
</g>
<defs>
<clipPath id="SvgjsClipPath1000">
<rect width="425" height="500" fill="white" transform="translate(87 50)"></rect>
</clipPath>
</defs>
</svg><style>@media (prefers-color-scheme: light) { :root { filter: none; } }
</style></svg>