<?xml version="1.0" standalone="no"?>
<!DOCTYPE svg PUBLIC "-//W3C//DTD SVG 20010904//EN"
 "http://www.w3.org/TR/2001/REC-SVG-20010904/DTD/svg10.dtd">
<svg version="1.0" xmlns="http://www.w3.org/2000/svg"
 width="260.000000pt" height="260.000000pt" viewBox="0 0 260.000000 260.000000"
 preserveAspectRatio="xMidYMid meet">
<metadata>
Created by potrace 1.14, written by Peter Selinger 2001-2017
</metadata>
<g transform="translate(0.000000,260.000000) scale(0.100000,-0.100000)"
fill="#000000" stroke="none">
<path d="M1180 2585 c-431 -73 -800 -336 -938 -668 -64 -157 -66 -170 -70
-572 -4 -395 1 -461 43 -585 113 -332 406 -593 791 -705 158 -46 269 -58 464
-52 191 6 278 22 435 77 160 57 319 149 428 249 l57 53 0 277 c0 206 -3 282
-12 294 -18 24 -485 247 -518 247 -15 0 -39 -9 -53 -20 -38 -30 -143 -77 -217
-97 -88 -23 -262 -23 -350 1 -105 28 -204 82 -278 152 l-67 64 69 65 c209 199
552 230 811 73 38 -22 77 -40 89 -40 12 0 134 55 271 123 l250 124 3 284 2
285 -53 51 c-156 152 -410 272 -665 316 -133 22 -372 25 -492 4z m548 -109
c178 -45 368 -136 473 -226 l44 -38 -187 -90 -187 -90 -63 34 c-116 63 -207
86 -358 91 -114 4 -149 2 -222 -16 -319 -76 -528 -306 -528 -579 0 -137 57
-262 174 -378 67 -67 98 -89 176 -127 133 -65 207 -81 370 -81 157 0 239 18
370 84 l80 40 185 -87 c101 -49 185 -91 185 -95 0 -13 -136 -108 -219 -151
-110 -57 -206 -92 -330 -117 -292 -59 -584 -23 -847 105 -339 165 -546 448
-562 766 -6 125 7 207 50 326 58 161 208 345 367 452 86 59 249 135 346 162
142 39 229 49 410 44 141 -3 188 -8 273 -29z m552 -569 l0 -213 -180 -87 -180
-86 0 215 0 215 173 83 c94 47 175 85 180 85 4 1 7 -95 7 -212z m-645 130 c44
-15 101 -40 128 -56 l47 -31 0 -74 0 -75 -53 25 c-147 67 -370 88 -527 50
-121 -29 -264 -103 -347 -181 l-72 -66 15 53 c24 79 61 141 122 203 130 131
283 187 492 181 90 -3 132 -9 195 -29z m-50 -252 c33 -8 97 -33 143 -56 l82
-40 0 -76 c0 -68 -2 -74 -17 -68 -131 56 -261 85 -379 85 -184 0 -391 -74
-511 -184 -43 -39 -57 -47 -64 -35 -13 21 -12 26 24 93 67 127 210 234 369
276 92 24 268 26 353 5z m-1231 -759 c50 -73 185 -201 277 -263 150 -101 332
-175 519 -210 142 -27 420 -24 557 5 184 40 354 110 497 206 38 25 70 46 72
46 2 0 4 -28 4 -63 0 -72 -4 -77 -120 -162 -134 -98 -329 -178 -514 -210 -114
-19 -347 -20 -459 0 -379 66 -692 288 -832 588 -34 73 -50 117 -42 117 2 0 21
-24 41 -54z m23 -296 c178 -226 462 -387 788 -446 146 -26 376 -24 520 4 199
39 364 105 515 207 l81 54 -3 -72 -3 -71 -90 -68 c-471 -358 -1200 -325 -1620
73 -41 40 -96 99 -121 132 -43 57 -114 193 -129 247 -9 30 -6 27 62 -60z"/>
</g>
</svg>
